<?xml version="1.0" standalone="no"?>
<!DOCTYPE svg PUBLIC "-//W3C//DTD SVG 20010904//EN"
 "http://www.w3.org/TR/2001/REC-SVG-20010904/DTD/svg10.dtd">
<svg version="1.0" xmlns="http://www.w3.org/2000/svg"
 width="35.000000pt" height="32.000000pt" viewBox="0 0 35.000000 32.000000"
 preserveAspectRatio="xMidYMid meet">

<g transform="translate(0.000000,32.000000) scale(0.100000,-0.100000)"
fill="#000000" stroke="none">
<path d="M83 259 c-35 -35 -2 -69 65 -69 43 0 68 20 58 46 -6 16 -8 16 -19 0
-20 -27 -80 -18 -87 12 -4 18 -7 21 -17 11z"/>
<path d="M130 260 c0 -5 7 -10 15 -10 8 0 15 5 15 10 0 6 -7 10 -15 10 -8 0
-15 -4 -15 -10z"/>
<path d="M231 198 c-2 -28 -42 -48 -94 -48 -38 0 -53 5 -72 25 -21 21 -25 22
-25 6 0 -25 40 -60 77 -67 65 -13 133 33 120 82 -4 16 -5 16 -6 2z"/>
<path d="M206 103 c-4 -4 -31 -10 -59 -14 l-52 -6 46 -2 c26 0 53 5 65 14 10
8 16 15 13 15 -3 0 -9 -3 -13 -7z"/>
</g>
</svg>
